<mxfile host="Electron" agent="Mozilla/5.0 (Windows NT 10.0; Win64; x64) AppleWebKit/537.36 (KHTML, like Gecko) draw.io/24.7.17 Chrome/128.0.6613.36 Electron/32.0.1 Safari/537.36" version="24.7.17">
  <diagram name="Page-1" id="9f46799a-70d6-7492-0946-bef42562c5a5">
    <mxGraphModel dx="2440" dy="2315" grid="1" gridSize="10" guides="1" tooltips="1" connect="1" arrows="1" fold="1" page="1" pageScale="1" pageWidth="1100" pageHeight="850" background="none" math="0" shadow="0">
      <root>
        <mxCell id="0" />
        <mxCell id="1" parent="0" />
        <mxCell id="ldVdUJ_2NzXwhwa70sZU-3" value="Application" style="swimlane;fontStyle=1;align=center;verticalAlign=top;childLayout=stackLayout;horizontal=1;startSize=26;horizontalStack=0;resizeParent=1;resizeParentMax=0;resizeLast=0;collapsible=1;marginBottom=0;whiteSpace=wrap;html=1;" parent="1" vertex="1">
          <mxGeometry x="480" y="57" width="230" height="138" as="geometry" />
        </mxCell>
        <mxCell id="ldVdUJ_2NzXwhwa70sZU-4" value="+ renderer: IRenderer" style="text;strokeColor=none;fillColor=none;align=left;verticalAlign=top;spacingLeft=4;spacingRight=4;overflow=hidden;rotatable=0;points=[[0,0.5],[1,0.5]];portConstraint=eastwest;whiteSpace=wrap;html=1;" parent="ldVdUJ_2NzXwhwa70sZU-3" vertex="1">
          <mxGeometry y="26" width="230" height="26" as="geometry" />
        </mxCell>
        <mxCell id="CkVZrtCV6ZixddmoGhVi-11" value="+ scenemanager: SceneManager" style="text;strokeColor=none;fillColor=none;align=left;verticalAlign=top;spacingLeft=4;spacingRight=4;overflow=hidden;rotatable=0;points=[[0,0.5],[1,0.5]];portConstraint=eastwest;whiteSpace=wrap;html=1;" vertex="1" parent="ldVdUJ_2NzXwhwa70sZU-3">
          <mxGeometry y="52" width="230" height="26" as="geometry" />
        </mxCell>
        <mxCell id="CkVZrtCV6ZixddmoGhVi-37" value="+ inputhandler: InputHandler" style="text;strokeColor=none;fillColor=none;align=left;verticalAlign=top;spacingLeft=4;spacingRight=4;overflow=hidden;rotatable=0;points=[[0,0.5],[1,0.5]];portConstraint=eastwest;whiteSpace=wrap;html=1;" vertex="1" parent="ldVdUJ_2NzXwhwa70sZU-3">
          <mxGeometry y="78" width="230" height="26" as="geometry" />
        </mxCell>
        <mxCell id="ldVdUJ_2NzXwhwa70sZU-5" value="" style="line;strokeWidth=1;fillColor=none;align=left;verticalAlign=middle;spacingTop=-1;spacingLeft=3;spacingRight=3;rotatable=0;labelPosition=right;points=[];portConstraint=eastwest;strokeColor=inherit;" parent="ldVdUJ_2NzXwhwa70sZU-3" vertex="1">
          <mxGeometry y="104" width="230" height="8" as="geometry" />
        </mxCell>
        <mxCell id="ldVdUJ_2NzXwhwa70sZU-6" value="+ Run(): void" style="text;strokeColor=none;fillColor=none;align=left;verticalAlign=top;spacingLeft=4;spacingRight=4;overflow=hidden;rotatable=0;points=[[0,0.5],[1,0.5]];portConstraint=eastwest;whiteSpace=wrap;html=1;" parent="ldVdUJ_2NzXwhwa70sZU-3" vertex="1">
          <mxGeometry y="112" width="230" height="26" as="geometry" />
        </mxCell>
        <mxCell id="ldVdUJ_2NzXwhwa70sZU-7" value="GLFW" style="shape=folder;fontStyle=1;spacingTop=10;tabWidth=40;tabHeight=14;tabPosition=left;html=1;whiteSpace=wrap;" parent="1" vertex="1">
          <mxGeometry x="180" y="40" width="70" height="50" as="geometry" />
        </mxCell>
        <mxCell id="ldVdUJ_2NzXwhwa70sZU-8" value="OpenGL" style="shape=folder;fontStyle=1;spacingTop=10;tabWidth=40;tabHeight=14;tabPosition=left;html=1;whiteSpace=wrap;" parent="1" vertex="1">
          <mxGeometry x="50" y="40" width="70" height="50" as="geometry" />
        </mxCell>
        <mxCell id="ldVdUJ_2NzXwhwa70sZU-9" value="Dependencies" style="shape=umlFrame;whiteSpace=wrap;html=1;pointerEvents=0;fillOpacity=100;width=100;" parent="1" vertex="1">
          <mxGeometry width="300" height="200" as="geometry" />
        </mxCell>
        <mxCell id="ldVdUJ_2NzXwhwa70sZU-10" value="Use" style="endArrow=open;endSize=12;dashed=1;html=1;rounded=0;exitX=-0.002;exitY=0.116;exitDx=0;exitDy=0;exitPerimeter=0;" parent="1" source="ldVdUJ_2NzXwhwa70sZU-3" target="ldVdUJ_2NzXwhwa70sZU-7" edge="1">
          <mxGeometry width="160" relative="1" as="geometry">
            <mxPoint x="420" y="590" as="sourcePoint" />
            <mxPoint x="580" y="590" as="targetPoint" />
          </mxGeometry>
        </mxCell>
        <mxCell id="ldVdUJ_2NzXwhwa70sZU-11" value="&lt;p style=&quot;margin:0px;margin-top:4px;text-align:center;&quot;&gt;&lt;i&gt;&amp;lt;&amp;lt;Interface&amp;gt;&amp;gt;&lt;/i&gt;&lt;br&gt;&lt;b&gt;IRenderer&lt;/b&gt;&lt;/p&gt;&lt;hr size=&quot;1&quot; style=&quot;border-style:solid;&quot;&gt;&lt;p style=&quot;margin:0px;margin-left:4px;&quot;&gt;+&lt;span style=&quot;background-color: initial;&quot;&gt;&amp;nbsp;DrawText(Text, Position): void&lt;/span&gt;&lt;/p&gt;&lt;p style=&quot;margin:0px;margin-left:4px;&quot;&gt;+ DrawLine(Position, Position): void&lt;/p&gt;&lt;p style=&quot;margin:0px;margin-left:4px;&quot;&gt;+ DrawRect(Position, Position): void&lt;/p&gt;&lt;p style=&quot;margin:0px;margin-left:4px;&quot;&gt;+ ....&lt;/p&gt;" style="verticalAlign=top;align=left;overflow=fill;html=1;whiteSpace=wrap;" parent="1" vertex="1">
          <mxGeometry x="280" y="300" width="250" height="140" as="geometry" />
        </mxCell>
        <mxCell id="ldVdUJ_2NzXwhwa70sZU-12" value="&lt;p style=&quot;margin:0px;margin-top:4px;text-align:center;&quot;&gt;&lt;b&gt;OpenGLRenderer&lt;/b&gt;&lt;/p&gt;" style="verticalAlign=top;align=left;overflow=fill;html=1;whiteSpace=wrap;" parent="1" vertex="1">
          <mxGeometry x="335" y="530" width="140" height="60" as="geometry" />
        </mxCell>
        <mxCell id="ldVdUJ_2NzXwhwa70sZU-13" value="" style="endArrow=block;dashed=1;endFill=0;endSize=12;html=1;rounded=0;exitX=0.5;exitY=0;exitDx=0;exitDy=0;" parent="1" source="ldVdUJ_2NzXwhwa70sZU-12" target="ldVdUJ_2NzXwhwa70sZU-11" edge="1">
          <mxGeometry width="160" relative="1" as="geometry">
            <mxPoint x="365" y="670" as="sourcePoint" />
            <mxPoint x="525" y="670" as="targetPoint" />
          </mxGeometry>
        </mxCell>
        <mxCell id="ldVdUJ_2NzXwhwa70sZU-14" value="Use" style="endArrow=open;endSize=12;dashed=1;html=1;rounded=0;entryX=0.5;entryY=1;entryDx=0;entryDy=0;entryPerimeter=0;edgeStyle=orthogonalEdgeStyle;" parent="1" target="ldVdUJ_2NzXwhwa70sZU-8" edge="1">
          <mxGeometry width="160" relative="1" as="geometry">
            <mxPoint x="335" y="560" as="sourcePoint" />
            <mxPoint x="580" y="590" as="targetPoint" />
            <Array as="points">
              <mxPoint x="335" y="560" />
              <mxPoint x="85" y="560" />
            </Array>
          </mxGeometry>
        </mxCell>
        <mxCell id="L-BBvo-nCaZcxiVlzpDM-5" value="Rendering" style="shape=umlFrame;whiteSpace=wrap;html=1;pointerEvents=0;width=100;" parent="1" vertex="1">
          <mxGeometry x="10" y="260" width="670" height="640" as="geometry" />
        </mxCell>
        <mxCell id="CkVZrtCV6ZixddmoGhVi-1" value="" style="endArrow=open;endFill=1;endSize=12;html=1;rounded=0;exitX=0;exitY=0.5;exitDx=0;exitDy=0;entryX=0.5;entryY=0;entryDx=0;entryDy=0;" edge="1" parent="1" source="ldVdUJ_2NzXwhwa70sZU-4" target="ldVdUJ_2NzXwhwa70sZU-11">
          <mxGeometry width="160" relative="1" as="geometry">
            <mxPoint x="470" y="530" as="sourcePoint" />
            <mxPoint x="630" y="530" as="targetPoint" />
          </mxGeometry>
        </mxCell>
        <mxCell id="CkVZrtCV6ZixddmoGhVi-2" value="&lt;p style=&quot;margin:0px;margin-top:4px;text-align:center;&quot;&gt;&lt;b&gt;GlyphManager&lt;/b&gt;&lt;/p&gt;" style="verticalAlign=top;align=left;overflow=fill;html=1;whiteSpace=wrap;" vertex="1" parent="1">
          <mxGeometry x="145" y="710" width="140" height="60" as="geometry" />
        </mxCell>
        <mxCell id="CkVZrtCV6ZixddmoGhVi-3" value="&lt;p style=&quot;margin:0px;margin-top:4px;text-align:center;&quot;&gt;&lt;b&gt;ShaderManager&lt;/b&gt;&lt;/p&gt;" style="verticalAlign=top;align=left;overflow=fill;html=1;whiteSpace=wrap;" vertex="1" parent="1">
          <mxGeometry x="350" y="710" width="140" height="60" as="geometry" />
        </mxCell>
        <mxCell id="CkVZrtCV6ZixddmoGhVi-4" value="" style="endArrow=open;endFill=1;endSize=12;html=1;rounded=0;" edge="1" parent="1" source="ldVdUJ_2NzXwhwa70sZU-12" target="CkVZrtCV6ZixddmoGhVi-2">
          <mxGeometry width="160" relative="1" as="geometry">
            <mxPoint x="470" y="530" as="sourcePoint" />
            <mxPoint x="630" y="530" as="targetPoint" />
          </mxGeometry>
        </mxCell>
        <mxCell id="CkVZrtCV6ZixddmoGhVi-5" value="" style="endArrow=open;endFill=1;endSize=12;html=1;rounded=0;" edge="1" parent="1" source="ldVdUJ_2NzXwhwa70sZU-12" target="CkVZrtCV6ZixddmoGhVi-3">
          <mxGeometry width="160" relative="1" as="geometry">
            <mxPoint x="470" y="530" as="sourcePoint" />
            <mxPoint x="630" y="530" as="targetPoint" />
          </mxGeometry>
        </mxCell>
        <mxCell id="CkVZrtCV6ZixddmoGhVi-7" style="rounded=0;orthogonalLoop=1;jettySize=auto;html=1;exitX=0.656;exitY=0.944;exitDx=0;exitDy=0;exitPerimeter=0;" edge="1" parent="1" source="CkVZrtCV6ZixddmoGhVi-6" target="CkVZrtCV6ZixddmoGhVi-2">
          <mxGeometry relative="1" as="geometry" />
        </mxCell>
        <mxCell id="CkVZrtCV6ZixddmoGhVi-8" style="rounded=0;orthogonalLoop=1;jettySize=auto;html=1;exitX=0;exitY=0;exitDx=120;exitDy=20;exitPerimeter=0;entryX=0;entryY=1;entryDx=0;entryDy=0;" edge="1" parent="1" source="CkVZrtCV6ZixddmoGhVi-6" target="ldVdUJ_2NzXwhwa70sZU-12">
          <mxGeometry relative="1" as="geometry" />
        </mxCell>
        <mxCell id="CkVZrtCV6ZixddmoGhVi-6" value="Potentially&lt;div&gt;A &#39;TextRenderer&#39;&lt;/div&gt;&lt;div&gt;class inbetween&lt;/div&gt;" style="shape=note;strokeWidth=2;fontSize=14;size=20;whiteSpace=wrap;html=1;fillColor=#fff2cc;strokeColor=#d6b656;fontColor=#666600;" vertex="1" parent="1">
          <mxGeometry x="100" y="580" width="120" height="60" as="geometry" />
        </mxCell>
        <mxCell id="CkVZrtCV6ZixddmoGhVi-9" value="&lt;p style=&quot;margin:0px;margin-top:4px;text-align:center;&quot;&gt;&lt;b&gt;Camera&lt;/b&gt;&lt;/p&gt;" style="verticalAlign=top;align=left;overflow=fill;html=1;whiteSpace=wrap;" vertex="1" parent="1">
          <mxGeometry x="500" y="630" width="140" height="60" as="geometry" />
        </mxCell>
        <mxCell id="CkVZrtCV6ZixddmoGhVi-10" value="" style="endArrow=open;endFill=1;endSize=12;html=1;rounded=0;" edge="1" parent="1" source="ldVdUJ_2NzXwhwa70sZU-12" target="CkVZrtCV6ZixddmoGhVi-9">
          <mxGeometry width="160" relative="1" as="geometry">
            <mxPoint x="418" y="600" as="sourcePoint" />
            <mxPoint x="428" y="720" as="targetPoint" />
          </mxGeometry>
        </mxCell>
        <mxCell id="CkVZrtCV6ZixddmoGhVi-12" value="Components" style="shape=umlFrame;whiteSpace=wrap;html=1;pointerEvents=0;width=100;" vertex="1" parent="1">
          <mxGeometry x="1315" y="320" width="670" height="350" as="geometry" />
        </mxCell>
        <mxCell id="CkVZrtCV6ZixddmoGhVi-13" value="&lt;p style=&quot;margin:0px;margin-top:4px;text-align:center;&quot;&gt;&lt;i&gt;&amp;lt;&amp;lt;Interface&amp;gt;&amp;gt;&lt;/i&gt;&lt;br&gt;&lt;b&gt;IComponent&lt;/b&gt;&lt;/p&gt;&lt;hr size=&quot;1&quot; style=&quot;border-style:solid;&quot;&gt;&lt;p style=&quot;margin:0px;margin-left:4px;&quot;&gt;+&lt;span style=&quot;background-color: initial;&quot;&gt;&amp;nbsp;position&lt;/span&gt;&lt;/p&gt;&lt;p style=&quot;margin:0px;margin-left:4px;&quot;&gt;+ size&lt;/p&gt;&lt;p style=&quot;margin:0px;margin-left:4px;&quot;&gt;&lt;br&gt;&lt;/p&gt;&lt;p style=&quot;margin:0px;margin-left:4px;&quot;&gt;+ Update(DeltaTime): void&lt;/p&gt;&lt;p style=&quot;margin:0px;margin-left:4px;&quot;&gt;+ DrawDynamicElements(IRenderer, DeltaTime): void&lt;/p&gt;" style="verticalAlign=top;align=left;overflow=fill;html=1;whiteSpace=wrap;" vertex="1" parent="1">
          <mxGeometry x="1495" y="350" width="300" height="140" as="geometry" />
        </mxCell>
        <mxCell id="CkVZrtCV6ZixddmoGhVi-16" value="" style="endArrow=open;endFill=1;endSize=12;html=1;rounded=0;" edge="1" parent="1" source="CkVZrtCV6ZixddmoGhVi-13" target="ldVdUJ_2NzXwhwa70sZU-11">
          <mxGeometry width="160" relative="1" as="geometry">
            <mxPoint x="490" y="106" as="sourcePoint" />
            <mxPoint x="415" y="310" as="targetPoint" />
          </mxGeometry>
        </mxCell>
        <mxCell id="CkVZrtCV6ZixddmoGhVi-17" value="Scene Management" style="shape=umlFrame;whiteSpace=wrap;html=1;pointerEvents=0;width=100;" vertex="1" parent="1">
          <mxGeometry x="720" y="720" width="1002.5" height="460" as="geometry" />
        </mxCell>
        <mxCell id="CkVZrtCV6ZixddmoGhVi-19" value="SceneManager" style="swimlane;fontStyle=1;align=center;verticalAlign=top;childLayout=stackLayout;horizontal=1;startSize=26;horizontalStack=0;resizeParent=1;resizeParentMax=0;resizeLast=0;collapsible=1;marginBottom=0;whiteSpace=wrap;html=1;" vertex="1" parent="1">
          <mxGeometry x="792.5" y="894" width="260" height="112" as="geometry" />
        </mxCell>
        <mxCell id="CkVZrtCV6ZixddmoGhVi-20" value="+ activeScene: IScene" style="text;strokeColor=none;fillColor=none;align=left;verticalAlign=top;spacingLeft=4;spacingRight=4;overflow=hidden;rotatable=0;points=[[0,0.5],[1,0.5]];portConstraint=eastwest;whiteSpace=wrap;html=1;" vertex="1" parent="CkVZrtCV6ZixddmoGhVi-19">
          <mxGeometry y="26" width="260" height="26" as="geometry" />
        </mxCell>
        <mxCell id="CkVZrtCV6ZixddmoGhVi-22" value="" style="line;strokeWidth=1;fillColor=none;align=left;verticalAlign=middle;spacingTop=-1;spacingLeft=3;spacingRight=3;rotatable=0;labelPosition=right;points=[];portConstraint=eastwest;strokeColor=inherit;" vertex="1" parent="CkVZrtCV6ZixddmoGhVi-19">
          <mxGeometry y="52" width="260" height="8" as="geometry" />
        </mxCell>
        <mxCell id="CkVZrtCV6ZixddmoGhVi-23" value="+ UpdateScene(DeltaTime): void" style="text;strokeColor=none;fillColor=none;align=left;verticalAlign=top;spacingLeft=4;spacingRight=4;overflow=hidden;rotatable=0;points=[[0,0.5],[1,0.5]];portConstraint=eastwest;whiteSpace=wrap;html=1;" vertex="1" parent="CkVZrtCV6ZixddmoGhVi-19">
          <mxGeometry y="60" width="260" height="26" as="geometry" />
        </mxCell>
        <mxCell id="CkVZrtCV6ZixddmoGhVi-24" value="+ RenderScene(IRenderer, DeltaTime): void" style="text;strokeColor=none;fillColor=none;align=left;verticalAlign=top;spacingLeft=4;spacingRight=4;overflow=hidden;rotatable=0;points=[[0,0.5],[1,0.5]];portConstraint=eastwest;whiteSpace=wrap;html=1;" vertex="1" parent="CkVZrtCV6ZixddmoGhVi-19">
          <mxGeometry y="86" width="260" height="26" as="geometry" />
        </mxCell>
        <mxCell id="CkVZrtCV6ZixddmoGhVi-25" value="" style="endArrow=open;endFill=1;endSize=12;html=1;rounded=0;" edge="1" parent="1" source="ldVdUJ_2NzXwhwa70sZU-3" target="CkVZrtCV6ZixddmoGhVi-19">
          <mxGeometry width="160" relative="1" as="geometry">
            <mxPoint x="490" y="106" as="sourcePoint" />
            <mxPoint x="415" y="310" as="targetPoint" />
          </mxGeometry>
        </mxCell>
        <mxCell id="CkVZrtCV6ZixddmoGhVi-27" value="" style="endArrow=open;endFill=1;endSize=12;html=1;rounded=0;" edge="1" parent="1" source="CkVZrtCV6ZixddmoGhVi-19" target="ldVdUJ_2NzXwhwa70sZU-11">
          <mxGeometry width="160" relative="1" as="geometry">
            <mxPoint x="1062" y="270" as="sourcePoint" />
            <mxPoint x="1078" y="720" as="targetPoint" />
          </mxGeometry>
        </mxCell>
        <mxCell id="CkVZrtCV6ZixddmoGhVi-33" value="&lt;p style=&quot;margin:0px;margin-top:4px;text-align:center;&quot;&gt;&lt;i&gt;&amp;lt;&amp;lt;Interface&amp;gt;&amp;gt;&lt;/i&gt;&lt;br&gt;&lt;b&gt;IScene&lt;/b&gt;&lt;/p&gt;&lt;hr size=&quot;1&quot; style=&quot;border-style:solid;&quot;&gt;&lt;p style=&quot;margin:0px;margin-left:4px;&quot;&gt;+&lt;span style=&quot;background-color: initial;&quot;&gt;&amp;nbsp;components: std::vector&amp;lt;IComponent&amp;gt;&lt;/span&gt;&lt;/p&gt;&lt;p style=&quot;margin:0px;margin-left:4px;&quot;&gt;&lt;span style=&quot;background-color: initial;&quot;&gt;+ layout: LayoutManager&lt;/span&gt;&lt;/p&gt;&lt;p style=&quot;margin:0px;margin-left:4px;&quot;&gt;&lt;span style=&quot;background-color: initial;&quot;&gt;+ inputhandler: InputHandler&lt;/span&gt;&lt;/p&gt;&lt;p style=&quot;margin:0px;margin-left:4px;&quot;&gt;&lt;br&gt;&lt;/p&gt;&lt;p style=&quot;margin:0px;margin-left:4px;&quot;&gt;+ UpdateComponents(DeltaTime): void&lt;/p&gt;&lt;p style=&quot;margin:0px;margin-left:4px;&quot;&gt;+ RenderComponents(IRenderer, DeltaTime): void&lt;/p&gt;" style="verticalAlign=top;align=left;overflow=fill;html=1;whiteSpace=wrap;" vertex="1" parent="1">
          <mxGeometry x="1102.5" y="880" width="300" height="140" as="geometry" />
        </mxCell>
        <mxCell id="CkVZrtCV6ZixddmoGhVi-34" value="" style="endArrow=open;endFill=1;endSize=12;html=1;rounded=0;" edge="1" parent="1" source="CkVZrtCV6ZixddmoGhVi-19" target="CkVZrtCV6ZixddmoGhVi-33">
          <mxGeometry width="160" relative="1" as="geometry">
            <mxPoint x="672.5" y="746" as="sourcePoint" />
            <mxPoint x="882.5" y="788" as="targetPoint" />
          </mxGeometry>
        </mxCell>
        <mxCell id="CkVZrtCV6ZixddmoGhVi-35" value="" style="endArrow=open;endFill=1;endSize=12;html=1;rounded=0;" edge="1" parent="1" source="CkVZrtCV6ZixddmoGhVi-33" target="CkVZrtCV6ZixddmoGhVi-13">
          <mxGeometry width="160" relative="1" as="geometry">
            <mxPoint x="1060" y="470" as="sourcePoint" />
            <mxPoint x="1060" y="530" as="targetPoint" />
          </mxGeometry>
        </mxCell>
        <mxCell id="CkVZrtCV6ZixddmoGhVi-36" value="Input Handling" style="shape=umlFrame;whiteSpace=wrap;html=1;pointerEvents=0;width=100;" vertex="1" parent="1">
          <mxGeometry x="890" y="-60" width="740" height="320" as="geometry" />
        </mxCell>
        <mxCell id="CkVZrtCV6ZixddmoGhVi-38" value="InputHandler" style="swimlane;fontStyle=1;align=center;verticalAlign=top;childLayout=stackLayout;horizontal=1;startSize=26;horizontalStack=0;resizeParent=1;resizeParentMax=0;resizeLast=0;collapsible=1;marginBottom=0;whiteSpace=wrap;html=1;" vertex="1" parent="1">
          <mxGeometry x="940" y="70" width="260" height="138" as="geometry" />
        </mxCell>
        <mxCell id="CkVZrtCV6ZixddmoGhVi-39" value="+ listeners: std::vector&amp;lt;IInputListener&amp;gt;" style="text;strokeColor=none;fillColor=none;align=left;verticalAlign=top;spacingLeft=4;spacingRight=4;overflow=hidden;rotatable=0;points=[[0,0.5],[1,0.5]];portConstraint=eastwest;whiteSpace=wrap;html=1;" vertex="1" parent="CkVZrtCV6ZixddmoGhVi-38">
          <mxGeometry y="26" width="260" height="26" as="geometry" />
        </mxCell>
        <mxCell id="CkVZrtCV6ZixddmoGhVi-40" value="" style="line;strokeWidth=1;fillColor=none;align=left;verticalAlign=middle;spacingTop=-1;spacingLeft=3;spacingRight=3;rotatable=0;labelPosition=right;points=[];portConstraint=eastwest;strokeColor=inherit;" vertex="1" parent="CkVZrtCV6ZixddmoGhVi-38">
          <mxGeometry y="52" width="260" height="8" as="geometry" />
        </mxCell>
        <mxCell id="CkVZrtCV6ZixddmoGhVi-41" value="+ AddListener(IInputListener): void" style="text;strokeColor=none;fillColor=none;align=left;verticalAlign=top;spacingLeft=4;spacingRight=4;overflow=hidden;rotatable=0;points=[[0,0.5],[1,0.5]];portConstraint=eastwest;whiteSpace=wrap;html=1;" vertex="1" parent="CkVZrtCV6ZixddmoGhVi-38">
          <mxGeometry y="60" width="260" height="26" as="geometry" />
        </mxCell>
        <mxCell id="CkVZrtCV6ZixddmoGhVi-42" value="+ RemoveListener(IInputListener): void" style="text;strokeColor=none;fillColor=none;align=left;verticalAlign=top;spacingLeft=4;spacingRight=4;overflow=hidden;rotatable=0;points=[[0,0.5],[1,0.5]];portConstraint=eastwest;whiteSpace=wrap;html=1;" vertex="1" parent="CkVZrtCV6ZixddmoGhVi-38">
          <mxGeometry y="86" width="260" height="26" as="geometry" />
        </mxCell>
        <mxCell id="CkVZrtCV6ZixddmoGhVi-43" value="+ ProcessEvents(void): void" style="text;strokeColor=none;fillColor=none;align=left;verticalAlign=top;spacingLeft=4;spacingRight=4;overflow=hidden;rotatable=0;points=[[0,0.5],[1,0.5]];portConstraint=eastwest;whiteSpace=wrap;html=1;" vertex="1" parent="CkVZrtCV6ZixddmoGhVi-38">
          <mxGeometry y="112" width="260" height="26" as="geometry" />
        </mxCell>
        <mxCell id="CkVZrtCV6ZixddmoGhVi-44" value="" style="endArrow=open;endFill=1;endSize=12;html=1;rounded=0;" edge="1" parent="1" source="ldVdUJ_2NzXwhwa70sZU-3" target="CkVZrtCV6ZixddmoGhVi-38">
          <mxGeometry width="160" relative="1" as="geometry">
            <mxPoint x="718" y="205" as="sourcePoint" />
            <mxPoint x="968" y="358" as="targetPoint" />
          </mxGeometry>
        </mxCell>
        <mxCell id="CkVZrtCV6ZixddmoGhVi-45" value="&lt;p style=&quot;margin:0px;margin-top:4px;text-align:center;&quot;&gt;&lt;i&gt;&amp;lt;&amp;lt;Interface&amp;gt;&amp;gt;&lt;/i&gt;&lt;br&gt;&lt;b&gt;IInputListener&lt;/b&gt;&lt;/p&gt;&lt;hr size=&quot;1&quot; style=&quot;border-style:solid;&quot;&gt;&lt;p style=&quot;margin:0px;margin-left:4px;&quot;&gt;+&lt;span style=&quot;background-color: initial;&quot;&gt;&amp;nbsp;OnEvent(EventInfo): void&lt;/span&gt;&lt;/p&gt;" style="verticalAlign=top;align=left;overflow=fill;html=1;whiteSpace=wrap;" vertex="1" parent="1">
          <mxGeometry x="1280" y="69" width="300" height="140" as="geometry" />
        </mxCell>
        <mxCell id="CkVZrtCV6ZixddmoGhVi-46" value="" style="endArrow=open;endFill=1;endSize=12;html=1;rounded=0;" edge="1" parent="1" source="CkVZrtCV6ZixddmoGhVi-38" target="CkVZrtCV6ZixddmoGhVi-45">
          <mxGeometry width="160" relative="1" as="geometry">
            <mxPoint x="680" y="117" as="sourcePoint" />
            <mxPoint x="1060" y="22" as="targetPoint" />
          </mxGeometry>
        </mxCell>
        <mxCell id="CkVZrtCV6ZixddmoGhVi-47" value="LayoutManager" style="swimlane;fontStyle=1;align=center;verticalAlign=top;childLayout=stackLayout;horizontal=1;startSize=26;horizontalStack=0;resizeParent=1;resizeParentMax=0;resizeLast=0;collapsible=1;marginBottom=0;whiteSpace=wrap;html=1;" vertex="1" parent="1">
          <mxGeometry x="1457.5" y="904" width="260" height="86" as="geometry" />
        </mxCell>
        <mxCell id="CkVZrtCV6ZixddmoGhVi-48" value="+ ?" style="text;strokeColor=none;fillColor=none;align=left;verticalAlign=top;spacingLeft=4;spacingRight=4;overflow=hidden;rotatable=0;points=[[0,0.5],[1,0.5]];portConstraint=eastwest;whiteSpace=wrap;html=1;" vertex="1" parent="CkVZrtCV6ZixddmoGhVi-47">
          <mxGeometry y="26" width="260" height="26" as="geometry" />
        </mxCell>
        <mxCell id="CkVZrtCV6ZixddmoGhVi-49" value="" style="line;strokeWidth=1;fillColor=none;align=left;verticalAlign=middle;spacingTop=-1;spacingLeft=3;spacingRight=3;rotatable=0;labelPosition=right;points=[];portConstraint=eastwest;strokeColor=inherit;" vertex="1" parent="CkVZrtCV6ZixddmoGhVi-47">
          <mxGeometry y="52" width="260" height="8" as="geometry" />
        </mxCell>
        <mxCell id="CkVZrtCV6ZixddmoGhVi-50" value="+ ?" style="text;strokeColor=none;fillColor=none;align=left;verticalAlign=top;spacingLeft=4;spacingRight=4;overflow=hidden;rotatable=0;points=[[0,0.5],[1,0.5]];portConstraint=eastwest;whiteSpace=wrap;html=1;" vertex="1" parent="CkVZrtCV6ZixddmoGhVi-47">
          <mxGeometry y="60" width="260" height="26" as="geometry" />
        </mxCell>
        <mxCell id="CkVZrtCV6ZixddmoGhVi-52" value="" style="endArrow=open;endFill=1;endSize=12;html=1;rounded=0;" edge="1" parent="1" source="CkVZrtCV6ZixddmoGhVi-33" target="CkVZrtCV6ZixddmoGhVi-47">
          <mxGeometry width="160" relative="1" as="geometry">
            <mxPoint x="882.5" y="807" as="sourcePoint" />
            <mxPoint x="492.5" y="787" as="targetPoint" />
          </mxGeometry>
        </mxCell>
        <mxCell id="CkVZrtCV6ZixddmoGhVi-56" value="" style="endArrow=open;endFill=1;endSize=12;html=1;rounded=0;" edge="1" parent="1" source="CkVZrtCV6ZixddmoGhVi-33" target="CkVZrtCV6ZixddmoGhVi-38">
          <mxGeometry width="160" relative="1" as="geometry">
            <mxPoint x="666" y="205" as="sourcePoint" />
            <mxPoint x="930" y="504" as="targetPoint" />
          </mxGeometry>
        </mxCell>
        <mxCell id="CkVZrtCV6ZixddmoGhVi-59" value="" style="endArrow=block;dashed=1;endFill=0;endSize=12;html=1;rounded=0;" edge="1" parent="1" source="CkVZrtCV6ZixddmoGhVi-13" target="CkVZrtCV6ZixddmoGhVi-45">
          <mxGeometry width="160" relative="1" as="geometry">
            <mxPoint x="1110" y="510" as="sourcePoint" />
            <mxPoint x="1270" y="510" as="targetPoint" />
          </mxGeometry>
        </mxCell>
      </root>
    </mxGraphModel>
  </diagram>
</mxfile>
